<svg xmlns="http://www.w3.org/2000/svg" width="19.403" height="19.399" viewBox="0 0 19.403 19.399">
  <g id="Group_366" data-name="Group 366" transform="translate(-5505.793 -631.301)">
    <path id="Path_713" data-name="Path 713" d="M5543.764,682.2c0-.671,0-1.314,0-1.957a1.991,1.991,0,0,1,.455-1.332,1.943,1.943,0,0,1,1.563-.71c1.957,0,3.913,0,5.868,0,1.009,0,2.019.02,3.029,0a1.992,1.992,0,0,1,2.033,2.026c-.017,2.965,0,5.93-.008,8.9a1.942,1.942,0,0,1-2,2.021c-.644.015-1.288,0-1.931,0-2.272,0-4.543,0-6.814,0a3.014,3.014,0,0,1-.821-.1,1.926,1.926,0,0,1-1.375-1.878q-.019-.87,0-1.741a.418.418,0,0,0-.262-.439c-1.006-.523-2-1.063-3.005-1.6-.089-.047-.181-.09-.266-.144a.642.642,0,0,1,.008-1.142c.257-.157.531-.29.8-.432l2.436-1.3C5543.565,682.323,5543.65,682.269,5543.764,682.2Zm-3.177,2.472c.142.079.247.142.357.2,1.045.557,2.088,1.12,3.139,1.667a.58.58,0,0,1,.355.6c-.017.694-.015,1.388,0,2.082a1.269,1.269,0,0,0,1.105,1.246,2.781,2.781,0,0,0,.377.012h8.63c.1,0,.2,0,.3,0a1.262,1.262,0,0,0,1.179-1.172c.01-.125.008-.252.008-.378q0-4.258,0-8.516c0-.126,0-.252-.008-.378a1.189,1.189,0,0,0-.377-.8,1.326,1.326,0,0,0-1-.362c-.871,0-1.741,0-2.61,0-2.07,0-4.139,0-6.208,0a1.275,1.275,0,0,0-1.4,1.414c0,.593-.024,1.187.008,1.779a.738.738,0,0,1-.469.8c-1.024.516-2.028,1.072-3.039,1.613C5540.825,684.531,5540.72,684.6,5540.587,684.674Z" transform="translate(-31.516 -43.348)"/>
    <path id="Path_714" data-name="Path 714" d="M5515.355,632c-.216.429-.428.844-.631,1.264a1.036,1.036,0,0,1-1.023.634q-2.082-.013-4.164,0a1.032,1.032,0,0,1-1.026-.63c-.168-.352-.365-.693-.518-1.051a.361.361,0,0,0-.446-.235,1.263,1.263,0,0,0-1.064,1.033,3.5,3.5,0,0,0-.021.491q0,7.5,0,14.99a3.228,3.228,0,0,0,.027.528,1.247,1.247,0,0,0,1.021.987,3.608,3.608,0,0,0,.492.021q3.615,0,7.229,0a3.207,3.207,0,0,0,.529-.027,1.268,1.268,0,0,0,1-1.055c.013-.074.006-.152.021-.226a.34.34,0,0,1,.337-.3.326.326,0,0,1,.31.324,2.056,2.056,0,0,1-.08.558,1.915,1.915,0,0,1-1.793,1.382c-.656.015-1.312.006-1.968.006-1.918,0-3.836,0-5.754,0a2,2,0,0,1-1.181-.336,1.9,1.9,0,0,1-.858-1.563c0-.088,0-.177,0-.265q0-7.533,0-15.066a2.223,2.223,0,0,1,.2-1.067,1.914,1.914,0,0,1,1.8-1.1q3.294,0,6.587,0c.353,0,.707,0,1.06,0a1.931,1.931,0,0,1,1.989,1.788,4.762,4.762,0,0,1,.014.718c-.011.275-.142.41-.352.4-.194-.011-.3-.141-.31-.4-.007-.214.007-.43-.007-.643A1.241,1.241,0,0,0,5515.355,632Zm-6.739-.007c.153.31.307.572.416.851a.581.581,0,0,0,.638.406c.731-.017,1.463-.005,2.194-.005h1.778c.167,0,.34,0,.431-.174.182-.342.352-.689.548-1.077Z"/>
    <path id="Path_715" data-name="Path 715" d="M5547.172,862.26h-2.344a2.009,2.009,0,0,1-.265-.007.321.321,0,0,1-.294-.3.325.325,0,0,1,.282-.346,1.272,1.272,0,0,1,.264-.016q2.363,0,4.727,0a1.214,1.214,0,0,1,.3.029.294.294,0,0,1,.234.339.3.3,0,0,1-.257.285,1.48,1.48,0,0,1-.3.013Z" transform="translate(-35.56 -212.854)"/>
    <path id="Path_716" data-name="Path 716" d="M5631.2,708.595v-.466q0-1.779,0-3.558c0-.6.222-.823.822-.828.757-.007,1.515,0,2.271,0a.8.8,0,0,1,.6.191.747.747,0,0,1,.2.59q0,1.8,0,3.6v.454c.269.005.5.016.737.013.345,0,.668.039.826.4.165.382-.047.643-.3.9-.861.852-1.714,1.711-2.57,2.567-.044.045-.088.091-.135.133a.634.634,0,0,1-.973,0c-.961-.948-1.911-1.907-2.866-2.861a.638.638,0,0,1-.159-.729.616.616,0,0,1,.591-.4C5630.537,708.587,5630.838,708.595,5631.2,708.595Zm1.97,3.484a35.5,35.5,0,0,0,2.78-2.83c-.371,0-.736.006-1.1,0-.311-.007-.4-.1-.411-.413,0-.088,0-.176,0-.265v-4.143h-2.569v.432q0,1.929,0,3.857c0,.445-.09.53-.53.533-.332,0-.663,0-.992,0Z" transform="translate(-114.424 -66.954)"/>
  </g>
</svg>
