<svg xmlns="http://www.w3.org/2000/svg" width="113.861" height="113.836" viewBox="0 0 113.861 113.836">
  <g id="Group_197" data-name="Group 197" transform="translate(-6645.284 -3021.615)">
    <g id="Group_179" data-name="Group 179" transform="translate(6645.534 3021.865)">
      <path id="Path_328" data-name="Path 328" d="M6757.188,3021.865H6647.269a1.729,1.729,0,0,0-1.733,1.689v109.969a1.722,1.722,0,0,0,1.733,1.678h109.919a1.7,1.7,0,0,0,1.709-1.678V3023.554A1.707,1.707,0,0,0,6757.188,3021.865Zm-108.213,3.42h106.5v13.764h-106.5Zm106.5,106.5h-106.5v-89.322h106.5Z" transform="translate(-6645.535 -3021.865)" fill="#fff" stroke="#fff" stroke-width="0.5"/>
    </g>
    <g id="Group_180" data-name="Group 180" transform="translate(6746.453 3030.482)">
      <path id="Path_329" data-name="Path 329" d="M6674.665,3024.771a1.663,1.663,0,0,0-.512,1.22,1.746,1.746,0,0,0,1.708,1.735,1.825,1.825,0,0,0,1.225-.511,1.771,1.771,0,0,0,0-2.445A1.814,1.814,0,0,0,6674.665,3024.771Z" transform="translate(-6674.153 -3024.308)" fill="#fff" stroke="#fff" stroke-width="0.5"/>
    </g>
    <g id="Group_181" data-name="Group 181" transform="translate(6737 3030.434)">
      <path id="Path_330" data-name="Path 330" d="M6673.206,3024.295a1.733,1.733,0,1,0,0,3.467,1.733,1.733,0,0,0,0-3.467Z" transform="translate(-6671.473 -3024.295)" fill="#fff" stroke="#fff" stroke-width="0.5"/>
    </g>
    <g id="Group_182" data-name="Group 182" transform="translate(6727.565 3030.488)">
      <path id="Path_331" data-name="Path 331" d="M6669.283,3024.814a1.555,1.555,0,0,0-.486,1.175,1.834,1.834,0,0,0,.486,1.224,1.865,1.865,0,0,0,1.22.511,1.832,1.832,0,0,0,1.227-.511,1.791,1.791,0,0,0,0-2.444A1.8,1.8,0,0,0,6669.283,3024.814Z" transform="translate(-6668.797 -3024.31)" fill="#fff" stroke="#fff" stroke-width="0.5"/>
    </g>
    <g id="Group_183" data-name="Group 183" transform="translate(6679.896 3064.795)">
      <path id="Path_332" data-name="Path 332" d="M6677.611,3078.7a22.332,22.332,0,1,0-22.332-22.336A22.375,22.375,0,0,0,6677.611,3078.7Zm0-41.248a18.914,18.914,0,1,1-18.893,18.912A18.931,18.931,0,0,1,6677.611,3037.456Z" transform="translate(-6655.279 -3034.039)" fill="#fff" stroke="#fff" stroke-width="0.5"/>
    </g>
    <g id="Group_184" data-name="Group 184" transform="translate(6695.219 3074.251)">
      <path id="Path_333" data-name="Path 333" d="M6660.563,3062.291a1.485,1.485,0,0,0,.794.2,1.755,1.755,0,0,0,.993-.311l15.476-11.213a1.683,1.683,0,0,0,0-2.751l-15.476-11.168a1.739,1.739,0,0,0-1.787-.152,1.693,1.693,0,0,0-.937,1.531v22.328A1.694,1.694,0,0,0,6660.563,3062.291Zm2.5-20.494,10.808,7.8-10.808,7.807Z" transform="translate(-6659.625 -3036.72)" fill="#fff" stroke="#fff" stroke-width="0.5"/>
    </g>
    <g id="Group_185" data-name="Group 185" transform="translate(6681.605 3054.494)">
      <path id="Path_334" data-name="Path 334" d="M6657.494,3034.539h20.6a1.71,1.71,0,0,0,0-3.42h-20.6a1.71,1.71,0,1,0,0,3.42Z" transform="translate(-6655.764 -3031.118)" fill="#fff" stroke="#fff" stroke-width="0.5"/>
    </g>
    <g id="Group_186" data-name="Group 186" transform="translate(6714.258 3054.494)">
      <path id="Path_335" data-name="Path 335" d="M6666.731,3034.539h30.921a1.71,1.71,0,0,0,0-3.42h-30.921a1.71,1.71,0,0,0,0,3.42Z" transform="translate(-6665.022 -3031.118)" fill="#fff" stroke="#fff" stroke-width="0.5"/>
    </g>
    <g id="Group_187" data-name="Group 187" transform="translate(6655.858 3054.494)">
      <path id="Path_336" data-name="Path 336" d="M6650.17,3034.539h13.738a1.71,1.71,0,0,0,0-3.42H6650.17a1.71,1.71,0,0,0,0,3.42Z" transform="translate(-6648.462 -3031.118)" fill="#fff" stroke="#fff" stroke-width="0.5"/>
    </g>
    <g id="Group_188" data-name="Group 188" transform="translate(6726.266 3069.943)">
      <path id="Path_337" data-name="Path 337" d="M6670.162,3038.965h10.3a1.749,1.749,0,0,0,1.708-1.731,1.72,1.72,0,0,0-1.708-1.735h-10.3a1.724,1.724,0,0,0-1.733,1.735A1.752,1.752,0,0,0,6670.162,3038.965Z" transform="translate(-6668.429 -3035.499)" fill="#fff" stroke="#fff" stroke-width="0.5"/>
    </g>
    <g id="Group_189" data-name="Group 189" transform="translate(6655.858 3069.943)">
      <path id="Path_338" data-name="Path 338" d="M6650.17,3038.965h18.888a1.746,1.746,0,0,0,1.709-1.731,1.717,1.717,0,0,0-1.709-1.735H6650.17a1.715,1.715,0,0,0-1.708,1.735A1.744,1.744,0,0,0,6650.17,3038.965Z" transform="translate(-6648.462 -3035.499)" fill="#fff" stroke="#fff" stroke-width="0.5"/>
    </g>
    <g id="Group_190" data-name="Group 190" transform="translate(6729.706 3085.444)">
      <path id="Path_339" data-name="Path 339" d="M6686.583,3039.895h-15.448a1.693,1.693,0,0,0-1.731,1.678,1.736,1.736,0,0,0,1.731,1.736h15.448a1.709,1.709,0,0,0,1.705-1.736A1.667,1.667,0,0,0,6686.583,3039.895Z" transform="translate(-6669.404 -3039.895)" fill="#fff" stroke="#fff" stroke-width="0.5"/>
    </g>
    <g id="Group_191" data-name="Group 191" transform="translate(6655.858 3085.444)">
      <path id="Path_340" data-name="Path 340" d="M6650.17,3043.308h15.448a1.709,1.709,0,0,0,1.7-1.736,1.667,1.667,0,0,0-1.7-1.678H6650.17a1.669,1.669,0,0,0-1.708,1.678A1.711,1.711,0,0,0,6650.17,3043.308Z" transform="translate(-6648.462 -3039.895)" fill="#fff" stroke="#fff" stroke-width="0.5"/>
    </g>
    <g id="Group_192" data-name="Group 192" transform="translate(6726.266 3100.89)">
      <path id="Path_341" data-name="Path 341" d="M6689.05,3044.275h-18.888a1.709,1.709,0,1,0,0,3.417h18.888a1.708,1.708,0,0,0,0-3.417Z" transform="translate(-6668.429 -3044.275)" fill="#fff" stroke="#fff" stroke-width="0.5"/>
    </g>
    <g id="Group_193" data-name="Group 193" transform="translate(6655.858 3100.89)">
      <path id="Path_342" data-name="Path 342" d="M6650.17,3047.692h18.888a1.708,1.708,0,1,0,0-3.417H6650.17a1.708,1.708,0,0,0,0,3.417Z" transform="translate(-6648.462 -3044.275)" fill="#fff" stroke="#fff" stroke-width="0.5"/>
    </g>
    <g id="Group_194" data-name="Group 194" transform="translate(6695.343 3116.339)">
      <path id="Path_343" data-name="Path 343" d="M6673.4,3048.656h-12.009a1.707,1.707,0,1,0,0,3.413H6673.4a1.707,1.707,0,1,0,0-3.413Z" transform="translate(-6659.66 -3048.656)" fill="#fff" stroke="#fff" stroke-width="0.5"/>
    </g>
    <g id="Group_195" data-name="Group 195" transform="translate(6719.409 3116.339)">
      <path id="Path_344" data-name="Path 344" d="M6685.372,3048.656H6668.19a1.707,1.707,0,0,0,0,3.413h17.182a1.707,1.707,0,1,0,0-3.413Z" transform="translate(-6666.484 -3048.656)" fill="#fff" stroke="#fff" stroke-width="0.5"/>
    </g>
    <g id="Group_196" data-name="Group 196" transform="translate(6655.858 3116.339)">
      <path id="Path_345" data-name="Path 345" d="M6650.17,3052.07h27.482a1.707,1.707,0,0,0,0-3.413H6650.17a1.707,1.707,0,1,0,0,3.413Z" transform="translate(-6648.462 -3048.656)" fill="#fff" stroke="#fff" stroke-width="0.5"/>
    </g>
  </g>
</svg>
