<svg xmlns="http://www.w3.org/2000/svg" width="41.473" height="31.345" viewBox="0 0 41.473 31.345">
  <g id="Group_199" data-name="Group 199" transform="translate(-6564.587 -2738.329)">
    <path id="Path_349" data-name="Path 349" d="M6605.191,2768.191h-1.077a6.584,6.584,0,0,1-.083-6.855h1.16a.617.617,0,1,0,0-1.234h-4.173a4.611,4.611,0,0,0,1.482-3.411v-3.759a4.632,4.632,0,0,0-1.482-3.39h3.639a.617.617,0,1,0,0-1.234h-.359a11.083,11.083,0,0,1-.073-8.494h.433a.608.608,0,0,0,.628-.608.622.622,0,0,0-.628-.627h-18.334c-.029,0-.055.018-.073.018s-.02-.018-.027-.018h-17.46a3.94,3.94,0,0,0-3.926,3.945v3.093a3.923,3.923,0,0,0,3.926,3.925h2.754a13.5,13.5,0,0,1-.083,10.56h-.423a4.357,4.357,0,0,0-4.357,4.348v.627a4.358,4.358,0,0,0,4.357,4.347h34.181a.617.617,0,1,0,0-1.234Zm-2.856-26.294h-15.993a.617.617,0,1,0,0,1.234h15.865a12.384,12.384,0,0,0,.737,5.178h-16.621a2.7,2.7,0,0,1-2.691-2.692v-3.093a2.7,2.7,0,0,1,2.691-2.709h16.558A10.868,10.868,0,0,0,6602.335,2741.9Zm-20.683-2.082h1.814a3.965,3.965,0,0,0-1.068,2.709v3.093a3.887,3.887,0,0,0,1.068,2.692h-2.542a2.7,2.7,0,0,1-2.69-2.692v-3.093a2.7,2.7,0,0,1,2.69-2.709Zm-15.57,5.8v-3.093a2.7,2.7,0,0,1,2.681-2.709h9.3a4.014,4.014,0,0,0-1.067,2.709v3.093a3.935,3.935,0,0,0,1.067,2.692h-9.3A2.7,2.7,0,0,1,6566.082,2745.617Zm7.489,11.7h19.569a.626.626,0,0,0,.627-.627.639.639,0,0,0-.627-.626h-19.4a14.55,14.55,0,0,0-.856-6.523h24.985a3.4,3.4,0,0,1,3.392,3.39v3.759a3.406,3.406,0,0,1-3.392,3.411H6572.8A12.869,12.869,0,0,0,6573.571,2757.318Zm-2.561,10.873a3.118,3.118,0,0,1-3.115-3.114v-.627a3.117,3.117,0,0,1,3.115-3.115h31.647a8.539,8.539,0,0,0-.764,2.8h-30.248a.62.62,0,0,0-.617.627.632.632,0,0,0,.617.626h30.266a9.518,9.518,0,0,0,.819,2.8Z" fill="#fff" stroke="#fff" stroke-width="0.5"/>
  </g>
</svg>
