<svg xmlns="http://www.w3.org/2000/svg" width="35.002" height="34.995" viewBox="0 0 35.002 34.995">
  <g id="Group_197" data-name="Group 197" transform="translate(-6645.284 -3021.615)">
    <g id="Group_179" data-name="Group 179" transform="translate(6645.534 3021.865)">
      <path id="Path_328" data-name="Path 328" d="M6679.516,3021.865h-33.455a.527.527,0,0,0-.528.514v33.47a.525.525,0,0,0,.528.511h33.455a.517.517,0,0,0,.52-.511v-33.47A.519.519,0,0,0,6679.516,3021.865Zm-32.935,1.041H6679v4.189h-32.416ZM6679,3055.321h-32.416v-27.186H6679Z" transform="translate(-6645.534 -3021.865)" fill="#fff" stroke="#fff" stroke-width="0.5"/>
    </g>
    <g id="Group_180" data-name="Group 180" transform="translate(6676.25 3024.488)">
      <path id="Path_329" data-name="Path 329" d="M6674.308,3024.449a.508.508,0,0,0-.156.371.532.532,0,0,0,.52.528.556.556,0,0,0,.373-.156.54.54,0,0,0,0-.744A.552.552,0,0,0,6674.308,3024.449Z" transform="translate(-6674.152 -3024.309)" fill="#fff" stroke="#fff" stroke-width="0.5"/>
    </g>
    <g id="Group_181" data-name="Group 181" transform="translate(6673.373 3024.473)">
      <path id="Path_330" data-name="Path 330" d="M6672,3024.295a.528.528,0,1,0,0,1.055.528.528,0,0,0,0-1.055Z" transform="translate(-6671.472 -3024.295)" fill="#fff" stroke="#fff" stroke-width="0.5"/>
    </g>
    <g id="Group_182" data-name="Group 182" transform="translate(6670.501 3024.49)">
      <path id="Path_331" data-name="Path 331" d="M6668.945,3024.463a.472.472,0,0,0-.148.357.557.557,0,0,0,.148.373.567.567,0,0,0,.371.156.56.56,0,0,0,.374-.156.545.545,0,0,0,0-.744A.547.547,0,0,0,6668.945,3024.463Z" transform="translate(-6668.797 -3024.31)" fill="#fff" stroke="#fff" stroke-width="0.5"/>
    </g>
    <g id="Group_183" data-name="Group 183" transform="translate(6655.993 3034.931)">
      <path id="Path_332" data-name="Path 332" d="M6662.076,3047.633a6.8,6.8,0,1,0-6.8-6.8A6.81,6.81,0,0,0,6662.076,3047.633Zm0-12.554a5.756,5.756,0,1,1-5.75,5.756A5.762,5.762,0,0,1,6662.076,3035.079Z" transform="translate(-6655.278 -3034.039)" fill="#fff" stroke="#fff" stroke-width="0.5"/>
    </g>
    <g id="Group_184" data-name="Group 184" transform="translate(6660.656 3037.809)">
      <path id="Path_333" data-name="Path 333" d="M6659.909,3044.5a.454.454,0,0,0,.242.062.534.534,0,0,0,.3-.094l4.71-3.413a.512.512,0,0,0,0-.837l-4.71-3.4a.53.53,0,0,0-.544-.046.515.515,0,0,0-.286.466v6.8A.516.516,0,0,0,6659.909,3044.5Zm.761-6.238,3.29,2.373-3.29,2.376Z" transform="translate(-6659.624 -3036.72)" fill="#fff" stroke="#fff" stroke-width="0.5"/>
    </g>
    <g id="Group_185" data-name="Group 185" transform="translate(6656.513 3031.796)">
      <path id="Path_334" data-name="Path 334" d="M6656.29,3032.159h6.27a.521.521,0,0,0,0-1.041h-6.27a.521.521,0,1,0,0,1.041Z" transform="translate(-6655.763 -3031.118)" fill="#fff" stroke="#fff" stroke-width="0.5"/>
    </g>
    <g id="Group_186" data-name="Group 186" transform="translate(6666.451 3031.796)">
      <path id="Path_335" data-name="Path 335" d="M6665.542,3032.159h9.412a.521.521,0,0,0,0-1.041h-9.412a.521.521,0,0,0,0,1.041Z" transform="translate(-6665.022 -3031.118)" fill="#fff" stroke="#fff" stroke-width="0.5"/>
    </g>
    <g id="Group_187" data-name="Group 187" transform="translate(6648.676 3031.796)">
      <path id="Path_336" data-name="Path 336" d="M6648.982,3032.159h4.182a.521.521,0,0,0,0-1.041h-4.182a.521.521,0,0,0,0,1.041Z" transform="translate(-6648.462 -3031.118)" fill="#fff" stroke="#fff" stroke-width="0.5"/>
    </g>
    <g id="Group_188" data-name="Group 188" transform="translate(6670.105 3036.498)">
      <path id="Path_337" data-name="Path 337" d="M6668.956,3036.554h3.135a.532.532,0,0,0,.52-.527.524.524,0,0,0-.52-.528h-3.135a.525.525,0,0,0-.528.528A.534.534,0,0,0,6668.956,3036.554Z" transform="translate(-6668.428 -3035.499)" fill="#fff" stroke="#fff" stroke-width="0.5"/>
    </g>
    <g id="Group_189" data-name="Group 189" transform="translate(6648.676 3036.498)">
      <path id="Path_338" data-name="Path 338" d="M6648.982,3036.554h5.749a.531.531,0,0,0,.52-.527.522.522,0,0,0-.52-.528h-5.749a.523.523,0,0,0-.52.528A.531.531,0,0,0,6648.982,3036.554Z" transform="translate(-6648.462 -3035.499)" fill="#fff" stroke="#fff" stroke-width="0.5"/>
    </g>
    <g id="Group_190" data-name="Group 190" transform="translate(6671.152 3041.216)">
      <path id="Path_339" data-name="Path 339" d="M6674.633,3039.9h-4.7a.515.515,0,0,0-.527.511.528.528,0,0,0,.527.528h4.7a.52.52,0,0,0,.519-.528A.507.507,0,0,0,6674.633,3039.9Z" transform="translate(-6669.404 -3039.895)" fill="#fff" stroke="#fff" stroke-width="0.5"/>
    </g>
    <g id="Group_191" data-name="Group 191" transform="translate(6648.676 3041.216)">
      <path id="Path_340" data-name="Path 340" d="M6648.982,3040.934h4.7a.52.52,0,0,0,.519-.528.507.507,0,0,0-.519-.511h-4.7a.508.508,0,0,0-.52.511A.521.521,0,0,0,6648.982,3040.934Z" transform="translate(-6648.462 -3039.895)" fill="#fff" stroke="#fff" stroke-width="0.5"/>
    </g>
    <g id="Group_192" data-name="Group 192" transform="translate(6670.105 3045.917)">
      <path id="Path_341" data-name="Path 341" d="M6674.7,3044.275h-5.749a.52.52,0,1,0,0,1.04h5.749a.52.52,0,0,0,0-1.04Z" transform="translate(-6668.428 -3044.275)" fill="#fff" stroke="#fff" stroke-width="0.5"/>
    </g>
    <g id="Group_193" data-name="Group 193" transform="translate(6648.676 3045.917)">
      <path id="Path_342" data-name="Path 342" d="M6648.982,3045.315h5.749a.52.52,0,0,0,0-1.04h-5.749a.52.52,0,1,0,0,1.04Z" transform="translate(-6648.462 -3044.275)" fill="#fff" stroke="#fff" stroke-width="0.5"/>
    </g>
    <g id="Group_194" data-name="Group 194" transform="translate(6660.694 3050.619)">
      <path id="Path_343" data-name="Path 343" d="M6663.841,3048.656h-3.655a.519.519,0,1,0,0,1.039h3.655a.519.519,0,1,0,0-1.039Z" transform="translate(-6659.659 -3048.656)" fill="#fff" stroke="#fff" stroke-width="0.5"/>
    </g>
    <g id="Group_195" data-name="Group 195" transform="translate(6668.019 3050.619)">
      <path id="Path_344" data-name="Path 344" d="M6672.233,3048.656H6667a.519.519,0,0,0,0,1.039h5.23a.519.519,0,1,0,0-1.039Z" transform="translate(-6666.484 -3048.656)" fill="#fff" stroke="#fff" stroke-width="0.5"/>
    </g>
    <g id="Group_196" data-name="Group 196" transform="translate(6648.676 3050.619)">
      <path id="Path_345" data-name="Path 345" d="M6648.982,3049.695h8.365a.519.519,0,0,0,0-1.039h-8.365a.519.519,0,1,0,0,1.039Z" transform="translate(-6648.462 -3048.656)" fill="#fff" stroke="#fff" stroke-width="0.5"/>
    </g>
  </g>
</svg>
