<svg xmlns="http://www.w3.org/2000/svg" width="37.867" height="38.781" viewBox="0 0 37.867 38.781">
  <g id="Group_178" data-name="Group 178" transform="translate(-6564.747 -3021.615)">
    <path id="Path_327" data-name="Path 327" d="M6600.539,3040.119h-10.693a8.7,8.7,0,1,0-7.991,12.106,8.542,8.542,0,0,0,4.847-1.5v3.926a1.838,1.838,0,0,0,1.833,1.843h1.7v2.5H6566.16v-32.3h2.5v29.221a.586.586,0,0,0,.586.586h15.231a.577.577,0,0,0,0-1.154h-14.655V3023.02h17.858v5.648a.574.574,0,0,0,.576.568h5.641v8.574a.576.576,0,0,0,.577.571.586.586,0,0,0,.585-.571v-9.143c0-.018-.009-.036-.009-.051a.425.425,0,0,0-.035-.139.31.31,0,0,0-.009-.051.446.446,0,0,0-.12-.173l-6.215-6.233c-.053-.033-.113-.069-.173-.1-.018,0-.036-.018-.051-.018a.5.5,0,0,0-.157-.036h-19.044a.584.584,0,0,0-.586.571v3.081h-3.073a.591.591,0,0,0-.585.586v33.476a.575.575,0,0,0,.585.567h25.227a.575.575,0,0,0,.578-.567V3056.5h9.152a1.836,1.836,0,0,0,1.825-1.843v-12.692A1.836,1.836,0,0,0,6600.539,3040.119Zm-7.464-12.036h-4.237v-4.238Zm-18.761,15.447a7.54,7.54,0,0,1,14.266-3.411h-.044a1.838,1.838,0,0,0-1.833,1.843v1.515h-1.076a3.771,3.771,0,1,0-3.771,3.823,3.819,3.819,0,0,0,2.376-.843l2.29,2.979a7.523,7.523,0,0,1-12.208-5.905Zm8.816-.053a.589.589,0,0,0-.466.947l.854,1.1a2.567,2.567,0,0,1-1.663.621,2.626,2.626,0,0,1-2.608-2.617,2.61,2.61,0,0,1,5.218-.053Zm18.081,11.177a.682.682,0,0,1-.672.688h-12a.679.679,0,0,1-.669-.688v-5.183a.539.539,0,0,0-.123-.345l-3.436-4.477h2.972a.581.581,0,0,0,.586-.585v-2.1a.665.665,0,0,1,.669-.672h12a.667.667,0,0,1,.672.672Z" fill="#fff" stroke="#fff" stroke-width="0.5"/>
  </g>
</svg>
