<svg xmlns="http://www.w3.org/2000/svg" width="37.74" height="38.906" viewBox="0 0 37.74 38.906">
  <g id="Group_177" data-name="Group 177" transform="translate(-6645.306 -2734.353)">
    <g id="Group_170" data-name="Group 170" transform="translate(6655.632 2734.603)">
      <path id="Path_320" data-name="Path 320" d="M6680.578,2734.6h-.89a.6.6,0,0,0-.508.292l-6.873,12.21v-4.317a3.04,3.04,0,0,0-3.03-3.022h-12.253a3.034,3.034,0,0,0-3.031,3.022V2761.3a3.038,3.038,0,0,0,3.031,3.04h5.562l-4.4,7.805a.566.566,0,0,0,0,.57.61.61,0,0,0,.51.293h21.88a.58.58,0,0,0,.578-.586v-37.233A.59.59,0,0,0,6680.578,2734.6Zm-8.271,26.7v-3.265l3.574-6.338v15.335h-8.652l1.521-2.693h.527A3.043,3.043,0,0,0,6672.306,2761.3Zm-17.149,0v-18.513a1.869,1.869,0,0,1,1.866-1.866h12.253a1.873,1.873,0,0,1,1.863,1.866V2761.3a1.875,1.875,0,0,1-1.863,1.881h-12.253A1.871,1.871,0,0,1,6655.157,2761.3Zm4.535,10.533,4.229-7.494h3.5l-1.691,3a.579.579,0,0,0,.5.864h10.233a.581.581,0,0,0,.586-.587v-18.15a.561.561,0,0,0-.441-.552.591.591,0,0,0-.655.276l-3.643,6.475v-6.2l7.684-13.642v7.27h-.983a.582.582,0,0,0-.58.588.592.592,0,0,0,.58.586h.983v2.815h-.983a.579.579,0,1,0,0,1.157h.983v2.832h-.983a.582.582,0,0,0-.58.588.593.593,0,0,0,.58.586h.983v2.814h-.983a.582.582,0,0,0-.58.586.594.594,0,0,0,.58.589h.983v2.814h-.983a.593.593,0,0,0-.58.586.581.581,0,0,0,.58.588h.983v2.833h-.983a.567.567,0,0,0-.58.569.581.581,0,0,0,.58.588h.983v2.815h-.983a.6.6,0,0,0-.58.6.577.577,0,0,0,.58.57h.983v3.626Z" transform="translate(-6653.992 -2734.603)" fill="#2ec79b" stroke="#2ec79b" stroke-width="0.5"/>
    </g>
    <g id="Group_171" data-name="Group 171" transform="translate(6658.724 2742.737)">
      <path id="Path_321" data-name="Path 321" d="M6668.124,2741.413h-10.966a.58.58,0,0,0-.578.586v3.54a.582.582,0,0,0,.578.588h10.966a.585.585,0,0,0,.589-.588V2742A.583.583,0,0,0,6668.124,2741.413Zm-.579,3.558h-9.81v-2.4h9.81Z" transform="translate(-6656.58 -2741.413)" fill="#2dc69a"/>
    </g>
    <g id="Group_172" data-name="Group 172" transform="translate(6658.724 2749.126)">
      <path id="Path_322" data-name="Path 322" d="M6659.532,2746.762h-.63a2.336,2.336,0,0,0-2.322,2.33v.622a2.326,2.326,0,0,0,2.322,2.332h.63a2.32,2.32,0,0,0,2.324-2.332v-.622A2.331,2.331,0,0,0,6659.532,2746.762Zm1.166,2.952a1.168,1.168,0,0,1-1.166,1.174h-.63a1.168,1.168,0,0,1-1.167-1.174v-.622a1.181,1.181,0,0,1,1.167-1.174h.63a1.18,1.18,0,0,1,1.166,1.174Z" transform="translate(-6656.58 -2746.762)" fill="#2dc69a"/>
    </g>
    <g id="Group_173" data-name="Group 173" transform="translate(6665.57 2749.126)">
      <path id="Path_323" data-name="Path 323" d="M6665.266,2746.762h-.63a2.336,2.336,0,0,0-2.324,2.33v.622a2.326,2.326,0,0,0,2.324,2.332h.63a2.328,2.328,0,0,0,2.333-2.332v-.622A2.338,2.338,0,0,0,6665.266,2746.762Zm1.165,2.952a1.168,1.168,0,0,1-1.165,1.174h-.63a1.161,1.161,0,0,1-1.158-1.174v-.622a1.173,1.173,0,0,1,1.158-1.174h.63a1.18,1.18,0,0,1,1.165,1.174Z" transform="translate(-6662.312 -2746.762)" fill="#2ec79b"/>
    </g>
    <g id="Group_174" data-name="Group 174" transform="translate(6658.724 2756.086)">
      <path id="Path_324" data-name="Path 324" d="M6659.532,2752.589h-.63a2.322,2.322,0,0,0-2.322,2.313v.64a2.337,2.337,0,0,0,2.322,2.33h.63a2.332,2.332,0,0,0,2.324-2.33v-.64A2.317,2.317,0,0,0,6659.532,2752.589Zm1.166,2.954a1.165,1.165,0,0,1-1.166,1.156h-.63a1.165,1.165,0,0,1-1.167-1.156v-.64a1.166,1.166,0,0,1,1.167-1.157h.63a1.165,1.165,0,0,1,1.166,1.157Z" transform="translate(-6656.58 -2752.589)" fill="#2dc79a"/>
    </g>
    <g id="Group_175" data-name="Group 175" transform="translate(6665.57 2756.086)">
      <path id="Path_325" data-name="Path 325" d="M6665.266,2752.589h-.63a2.322,2.322,0,0,0-2.324,2.313v.64a2.337,2.337,0,0,0,2.324,2.33h.63a2.339,2.339,0,0,0,2.333-2.33v-.64A2.324,2.324,0,0,0,6665.266,2752.589Zm1.165,2.954a1.165,1.165,0,0,1-1.165,1.156h-.63a1.158,1.158,0,0,1-1.158-1.156v-.64a1.158,1.158,0,0,1,1.158-1.157h.63a1.165,1.165,0,0,1,1.165,1.157Z" transform="translate(-6662.312 -2752.589)" fill="#2ec79a"/>
    </g>
    <g id="Group_176" data-name="Group 176" transform="translate(6645.556 2734.629)">
      <path id="Path_326" data-name="Path 326" d="M6652.6,2740.643c0-.018-.009-.018-.009-.034v-.036a.972.972,0,0,0-.06-.207h-.009l-2.936-5.457a.6.6,0,0,0-1.019,0l-2.944,5.457h0a.515.515,0,0,0-.052.207.1.1,0,0,0-.008.036c0,.016-.01.016-.01.034v26.75c0,.018.01.018.01.018h-.01v4.559a.6.6,0,0,0,.405.552,10.262,10.262,0,0,0,6.227,0,.6.6,0,0,0,.413-.552v-4.577h0Zm-1.569,26.422c-.14.017-.278.051-.407.069a1.393,1.393,0,0,1-.251.033,1.845,1.845,0,0,1-.432.051.883.883,0,0,1-.216.018.1.1,0,0,1-.069.018v-25.593a10.375,10.375,0,0,0,1.779-.258v25.557a.643.643,0,0,0-.165.034A1.267,1.267,0,0,0,6651.031,2767.065Zm-2.815.154a1.735,1.735,0,0,1-.432-.051,1.427,1.427,0,0,1-.252-.033c-.129-.018-.267-.052-.4-.069a1.307,1.307,0,0,0-.241-.07.7.7,0,0,0-.165-.034V2741.4a10.359,10.359,0,0,0,1.771.258v25.593a.087.087,0,0,1-.061-.018A.849.849,0,0,1,6648.216,2767.219Zm.862-30.806,2.072,3.867a10.243,10.243,0,0,1-2.062.241l-.01-.017-.008.017a10.406,10.406,0,0,1-2.072-.241Zm2.357,35.107a9.11,9.11,0,0,1-4.714,0v-3.349h.052c.214.051.438.085.655.137.07,0,.14.015.209.015.181.036.354.054.524.072.071,0,.14.015.209.015a9.325,9.325,0,0,0,1.416,0c.07,0,.139-.015.207-.015a5.146,5.146,0,0,0,.519-.072c.078,0,.147-.015.217-.015.214-.052.438-.086.655-.137h.042Z" transform="translate(-6645.556 -2734.624)" fill="#2ec79b" stroke="#2ec79b" stroke-width="0.5"/>
    </g>
  </g>
</svg>
