<?xml version="1.0" standalone="no"?>
<!DOCTYPE svg PUBLIC "-//W3C//DTD SVG 20010904//EN"
 "http://www.w3.org/TR/2001/REC-SVG-20010904/DTD/svg10.dtd">
<svg version="1.0" xmlns="http://www.w3.org/2000/svg"
 width="75.000000pt" height="66.000000pt" viewBox="0 0 75.000000 66.000000"
 preserveAspectRatio="xMidYMid meet">

<g transform="translate(0.000000,66.000000) scale(0.100000,-0.100000)"
fill="#000000" stroke="none">
<path d="M137 654 c-4 -4 -7 -49 -7 -100 l0 -93 -37 -3 -38 -3 0 -225 0 -225
320 0 320 0 0 225 0 225 -37 3 -37 3 -3 97 -3 97 -236 3 c-129 1 -238 -1 -242
-4z m471 -101 c2 -69 0 -93 -10 -93 -9 0 -9 -3 0 -12 7 -7 12 -43 12 -90 l0
-78 -135 0 c-74 0 -135 3 -135 8 0 4 -13 22 -29 40 -28 30 -34 32 -100 32
l-71 0 0 138 c0 76 3 142 7 146 4 3 108 5 232 4 l226 -3 3 -92z m-480 -149 c3
-41 2 -42 -32 -46 l-36 -4 0 42 c0 44 9 54 45 51 16 -2 21 -10 23 -43z m546
40 c13 -5 16 -23 16 -88 l0 -82 -35 4 -35 4 0 77 c0 92 7 103 54 85z m-357
-144 l35 -40 169 0 170 0 -3 -122 c-3 -122 -3 -123 -27 -126 -15 -3 -30 3 -38
14 -12 16 -13 16 -13 1 0 -15 -21 -17 -235 -17 -214 0 -235 2 -235 17 0 15 -1
15 -13 -1 -8 -11 -23 -17 -38 -14 l-24 3 -3 163 -2 162 111 0 112 0 34 -40z"/>
<path d="M251 594 c-23 -17 -25 -43 -7 -86 6 -13 0 -20 -28 -32 -30 -13 -36
-20 -36 -45 l0 -31 106 0 105 0 -3 32 c-2 27 -9 34 -36 42 -28 8 -32 13 -27
30 17 54 16 65 -4 85 -25 25 -39 26 -70 5z m57 -10 c27 -18 28 -35 4 -64 -13
-17 -24 -21 -40 -16 -30 10 -39 51 -17 76 22 24 24 24 53 4z m3 -109 c0 -5 -7
-12 -16 -13 -23 -5 -47 6 -40 19 8 13 56 8 56 -6z m-66 -15 c8 -13 68 -13 82
1 16 16 53 -6 53 -31 0 -19 -7 -20 -95 -20 -88 0 -95 2 -95 20 0 28 42 51 55
30z"/>
<path d="M448 553 c12 -2 30 -2 40 0 9 3 -1 5 -23 4 -22 0 -30 -2 -17 -4z"/>
<path d="M538 553 c6 -2 18 -2 25 0 6 3 1 5 -13 5 -14 0 -19 -2 -12 -5z"/>
<path d="M463 503 c20 -2 54 -2 75 0 20 2 3 4 -38 4 -41 0 -58 -2 -37 -4z"/>
<path d="M453 453 c15 -2 39 -2 55 0 15 2 2 4 -28 4 -30 0 -43 -2 -27 -4z"/>
<path d="M443 403 c9 -2 23 -2 30 0 6 3 -1 5 -18 5 -16 0 -22 -2 -12 -5z"/>
<path d="M523 403 c9 -2 25 -2 35 0 9 3 1 5 -18 5 -19 0 -27 -2 -17 -5z"/>
<path d="M340 350 c0 -5 23 -10 50 -10 28 0 50 5 50 10 0 6 -22 10 -50 10 -27
0 -50 -4 -50 -10z"/>
<path d="M470 350 c0 -5 23 -10 50 -10 28 0 50 5 50 10 0 6 -22 10 -50 10 -27
0 -50 -4 -50 -10z"/>
<path d="M104 297 c-3 -8 -4 -39 -2 -68 l3 -54 60 0 60 0 0 65 0 65 -58 3
c-42 2 -59 -1 -63 -11z m114 -59 l-3 -53 -50 0 -50 0 -3 53 -3 52 56 0 56 0
-3 -52z"/>
<path d="M153 252 c-13 -22 7 -45 24 -27 7 8 7 16 -1 27 -11 15 -13 15 -23 0z"/>
<path d="M402 138 l3 -83 123 -3 122 -3 0 86 0 85 -125 0 -126 0 3 -82z m238
-3 l0 -76 -112 3 -113 3 -3 73 -3 72 116 0 115 0 0 -75z"/>
<path d="M463 163 c9 -2 25 -2 35 0 9 3 1 5 -18 5 -19 0 -27 -2 -17 -5z"/>
<path d="M553 163 c9 -2 25 -2 35 0 9 3 1 5 -18 5 -19 0 -27 -2 -17 -5z"/>
<path d="M478 113 c18 -2 45 -2 60 0 15 2 0 4 -33 4 -33 0 -45 -2 -27 -4z"/>
<path d="M1 384 c0 -11 3 -14 6 -6 3 7 2 16 -1 19 -3 4 -6 -2 -5 -13z"/>
<path d="M4 240 c0 -58 1 -81 3 -52 2 28 2 76 0 105 -2 28 -3 5 -3 -53z"/>
<path d="M741 294 c0 -11 3 -14 6 -6 3 7 2 16 -1 19 -3 4 -6 -2 -5 -13z"/>
<path d="M743 185 c0 -38 2 -53 4 -32 2 20 2 52 0 70 -2 17 -4 1 -4 -38z"/>
</g>
</svg>
