<?xml version="1.0" standalone="no"?>
<!DOCTYPE svg PUBLIC "-//W3C//DTD SVG 20010904//EN"
 "http://www.w3.org/TR/2001/REC-SVG-20010904/DTD/svg10.dtd">
<svg version="1.0" xmlns="http://www.w3.org/2000/svg"
 width="69.000000pt" height="69.000000pt" viewBox="0 0 69.000000 69.000000"
 preserveAspectRatio="xMidYMid meet">

<g transform="translate(0.000000,69.000000) scale(0.100000,-0.100000)"
fill="#000000" stroke="none">
<path d="M508 643 c-3 -35 -6 -38 -38 -43 -32 -5 -35 -8 -35 -40 0 -32 3 -35
35 -40 32 -5 35 -8 38 -43 l3 -38 42 3 c41 3 42 4 45 41 3 35 5 37 38 37 33 0
34 1 34 40 0 39 -1 40 -34 40 -33 0 -35 2 -38 38 -3 36 -4 37 -45 40 l-42 3
-3 -38z m72 -13 l0 -40 40 0 c38 0 40 -2 40 -30 0 -28 -2 -30 -40 -30 l-40 0
0 -40 c0 -38 -2 -40 -30 -40 -28 0 -30 2 -30 40 0 39 -1 40 -35 40 -32 0 -35
2 -35 30 0 28 3 30 35 30 34 0 35 1 35 40 0 38 2 40 30 40 28 0 30 -2 30 -40z"/>
<path d="M234 648 c-44 -21 -56 -84 -25 -134 24 -39 17 -50 -38 -63 -23 -5
-46 -12 -49 -16 -4 -4 -9 -32 -12 -63 -4 -49 -8 -57 -26 -60 -14 -2 -31 -21
-48 -53 -26 -47 -27 -49 -7 -49 20 0 21 -6 23 -102 0 -57 3 -88 5 -70 l4 32
284 0 284 0 4 -32 c2 -18 5 13 5 70 2 96 3 102 23 102 19 0 19 2 -8 50 l-28
50 -87 0 -88 0 0 34 c0 64 -18 95 -63 107 -63 17 -69 25 -46 62 52 86 -20 177
-107 135z m93 -20 c19 -15 16 -38 -4 -38 -10 1 -40 7 -66 14 -37 9 -45 15 -35
23 30 24 77 25 105 1z m-24 -45 c46 -6 48 -7 42 -32 -6 -28 -48 -71 -69 -71
-25 0 -64 40 -71 71 -8 34 8 53 35 43 8 -3 37 -8 63 -11z m15 -122 c4 -13 -25
-40 -43 -40 -18 0 -48 28 -43 41 7 16 81 15 86 -1z m-65 -44 c12 -10 17 -28
17 -61 l0 -46 -40 0 c-38 0 -40 2 -40 30 0 17 -4 30 -10 30 -5 0 -10 -13 -10
-30 0 -25 -4 -30 -25 -30 -24 0 -25 3 -25 54 0 58 5 65 54 76 31 7 46 2 79
-23z m166 9 c6 -4 11 -32 11 -62 0 -51 -1 -54 -25 -54 -21 0 -25 5 -25 30 0
17 -4 30 -10 30 -5 0 -10 -13 -10 -30 0 -28 -2 -30 -40 -30 l-40 0 0 48 c0 41
4 50 31 68 30 21 74 21 108 0z m220 -166 l22 -40 -316 0 -315 0 20 40 20 40
273 0 273 0 23 -40z m-14 -115 l0 -60 -280 0 -280 0 -3 49 c-5 82 -26 77 285
74 l278 -3 0 -60z"/>
<path d="M330 170 c0 -5 7 -10 15 -10 8 0 15 5 15 10 0 6 -7 10 -15 10 -8 0
-15 -4 -15 -10z"/>
<path d="M400 170 c0 -6 32 -10 75 -10 43 0 75 4 75 10 0 6 -32 10 -75 10 -43
0 -75 -4 -75 -10z"/>
<path d="M95 590 c-9 -15 4 -30 20 -23 8 3 15 9 15 13 0 12 -29 20 -35 10z"/>
<path d="M24 476 c-8 -8 -8 -15 0 -22 8 -8 15 -7 23 2 9 9 9 15 0 22 -8 7 -16
6 -23 -2z"/>
<path d="M621 396 c-8 -10 -8 -16 1 -24 19 -15 40 9 22 25 -9 9 -15 9 -23 -1z"/>
</g>
</svg>
