<svg id="Group_154" data-name="Group 154" xmlns="http://www.w3.org/2000/svg" width="50.963" height="42.426" viewBox="0 0 50.963 42.426">
  <path id="Path_300" data-name="Path 300" d="M5347.5,862.415a3.254,3.254,0,0,1,2.025-2.147q10.605-4.941,21.182-9.945a5.044,5.044,0,0,1,4.582.012q10.689,5.056,21.4,10.064a2.619,2.619,0,0,1,.115,4.909q-5.108,2.389-10.21,4.792c-3.761,1.768-7.531,3.522-11.28,5.317a5.077,5.077,0,0,1-4.674-.007c-3.147-1.519-6.322-2.98-9.484-4.465-.106-.049-.207-.106-.314-.149a.859.859,0,0,0-1.145.386.845.845,0,0,0,.447,1.161c.713.351,1.437.68,2.157,1.017l7.915,3.715a6.208,6.208,0,0,0,5.52.005l15.381-7.22c.12-.056.236-.12.358-.17a.835.835,0,0,1,1.241.794c.021.845.006,1.692.006,2.538,0,2.853-.014,5.706,0,8.559a4.539,4.539,0,0,1-2.687,4.39,36.994,36.994,0,0,1-19.07,4.076c-1.879-.1-3.747-.455-5.614-.728-.68-.1-.849-.365-.859-1.054-.024-1.492.032-2.99-.091-4.474a5.566,5.566,0,0,0-4.793-4.831c0,.5-.016.988.013,1.476.005.1.156.238.27.281a4.091,4.091,0,0,1,2.9,4.169c0,1.609-.008,3.218.006,4.827a1.417,1.417,0,0,1-.487,1.137,5.172,5.172,0,0,1-7.115-.126,1.248,1.248,0,0,1-.348-.776c-.028-1.857-.04-3.716,0-5.573a3.814,3.814,0,0,1,2.629-3.567.555.555,0,0,0,.435-.638c-.012-3.633.005-7.265-.018-10.9a1.258,1.258,0,0,1,.879-1.358c4.222-1.748,8.429-3.531,12.643-5.3.092-.039.184-.075.275-.116.588-.263.807-.69.6-1.173s-.665-.642-1.256-.4q-2.292.954-4.58,1.923c-2.777,1.17-5.549,2.353-8.333,3.5a2.874,2.874,0,0,0-1.8,1.725c-.151.437-.471.376-.811.216q-2.7-1.273-5.4-2.537c-.15-.07-.3-.151-.451-.209a3.258,3.258,0,0,1-2.169-2.136Z" transform="translate(-5347.501 -849.778)" fill="#0277bd"/>
  <path id="Path_301" data-name="Path 301" d="M5390.707,1004.8c0-1.541,0-3.082,0-4.622,0-.91.553-1.262,1.373-.881,1.761.818,1.577.539,1.581,2.443,0,2.121-.016,4.242.012,6.362a1.353,1.353,0,0,1-.684,1.365,3.5,3.5,0,0,0-.687.568.951.951,0,0,1-1.108.327c-.463-.2-.506-.6-.5-1.038.007-1.508,0-3.015,0-4.523Z" transform="translate(-5384.96 -979.323)" fill="#0277bd"/>
</svg>
