<svg xmlns="http://www.w3.org/2000/svg" width="39.656" height="39.648" viewBox="0 0 39.656 39.648">
  <g id="Group_159" data-name="Group 159" transform="translate(-7551.659 -1430.99)">
    <path id="Path_309" data-name="Path 309" d="M7674,1436.256c-.076.767-.143,1.535-.227,2.3a26.829,26.829,0,0,1-7.153,15.894,32.225,32.225,0,0,1-8.376,6.544l-.179.093-14.2-14.206c.626-1,1.243-2.089,1.957-3.108a31.214,31.214,0,0,1,9.647-9.083,25.882,25.882,0,0,1,7.959-2.993,33.487,33.487,0,0,1,7.844-.7c.31.008.619.026.927.06a2.005,2.005,0,0,1,1.729,1.683c.021.138.049.276.074.414Zm-18.288,7.214a5.806,5.806,0,1,0,5.808-5.8A5.776,5.776,0,0,0,7655.708,1443.47Z" transform="translate(-82.681)" fill="#0277bd"/>
    <path id="Path_310" data-name="Path 310" d="M7723.912,1727.477a2.161,2.161,0,0,1-1.653-1.611c-.216-1.085-.361-2.184-.544-3.326a28.557,28.557,0,0,0,11.388-5.14c-.044.558-.081,1.027-.118,1.5-.051.655-.1,1.311-.156,1.966a2.942,2.942,0,0,1-1.346,2.283q-2.988,2-6,3.964a5.756,5.756,0,0,1-.8.368Z" transform="translate(-152.498 -256.84)" fill="#0277bd"/>
    <path id="Path_311" data-name="Path 311" d="M7552.6,1731.6c-.062-.039-.123-.083-.187-.117a1.152,1.152,0,0,1-.331-1.855c.26-.285.543-.55.817-.823q3.2-3.2,6.4-6.4a1.164,1.164,0,0,1,2.021.45,1.246,1.246,0,0,1-.428,1.249q-2.741,2.728-5.47,5.466c-.419.419-.828.85-1.262,1.254-.3.276-.625.517-.94.773Z" transform="translate(-0.083 -260.966)" fill="#0277bd"/>
    <path id="Path_312" data-name="Path 312" d="M7620.23,1761.687c-.07-.029-.139-.06-.21-.087a1.143,1.143,0,0,1-.468-1.89c1.26-1.293,2.542-2.566,3.829-3.833a1.149,1.149,0,0,1,1.61,0,1.124,1.124,0,0,1,.042,1.6q-1.906,1.952-3.859,3.858a2.62,2.62,0,0,1-.634.346Z" transform="translate(-60.587 -291.049)" fill="#0277bd"/>
    <path id="Path_313" data-name="Path 313" d="M7634.888,1621.432a21.262,21.262,0,0,1-4.7,1.307,1.846,1.846,0,0,1-1.628-.552q-3.649-3.632-7.278-7.282a1.875,1.875,0,0,1-.519-1.818c.23-1,.468-2.006.736-3,.144-.531.36-1.043.528-1.521Z" transform="translate(-61.916 -159.243)" fill="#0277bd"/>
    <path id="Path_314" data-name="Path 314" d="M7561.749,1534.7a31.957,31.957,0,0,0-3.211,5.425,26.332,26.332,0,0,0-1.924,5.95c-.6-.088-1.2-.173-1.789-.263-.446-.068-.891-.141-1.336-.213a2.093,2.093,0,0,1-1.5-3.186c1.33-2.087,2.709-4.143,4.095-6.194a2.815,2.815,0,0,1,2.179-1.239C7559.39,1534.881,7560.521,1534.8,7561.749,1534.7Z" transform="translate(0 -93.002)" fill="#0277bd"/>
    <path id="Path_315" data-name="Path 315" d="M7558.1,1689.515a2.482,2.482,0,0,1-.378.677c-1.23,1.265-2.482,2.508-3.737,3.748a1.158,1.158,0,1,1-1.63-1.644q1.862-1.881,3.742-3.744a1.109,1.109,0,0,1,1.313-.255A1.212,1.212,0,0,1,7558.1,1689.515Z" transform="translate(-0.287 -230.641)" fill="#0277bd"/>
    <path id="Path_316" data-name="Path 316" d="M7781.137,1521.64a3.482,3.482,0,1,1,3.424,3.508A3.48,3.48,0,0,1,7781.137,1521.64Z" transform="translate(-205.785 -78.195)" fill="#0277bd"/>
  </g>
</svg>
