<svg xmlns="http://www.w3.org/2000/svg" width="37.221" height="41.396" viewBox="0 0 37.221 41.396">
  <g id="Group_157" data-name="Group 157" transform="translate(-5133.865 -1694.831)">
    <path id="Path_302" data-name="Path 302" d="M5154.708,1932.639a9.879,9.879,0,0,0,7.5,14.892c-.223,1.371-.441,2.718-.662,4.065-.064.388-.15.773-.19,1.164a.38.38,0,0,1-.374.387c-1.829.309-3.647.72-5.487.923a40.667,40.667,0,0,1-10.99-.291c-1.042-.169-2.069-.427-3.108-.615-.333-.06-.429-.229-.477-.533-.323-2.049-.661-4.095-1-6.141a.77.77,0,0,0-.136-.349v6.52a1.077,1.077,0,0,1-.193-.017,19.926,19.926,0,0,1-5.432-2.533.694.694,0,0,1-.294-.468c0-2.292,0-4.584.066-6.875a10.866,10.866,0,0,1,.844-3.834,9.511,9.511,0,0,1,5.327-5.148,21.908,21.908,0,0,1,6.419-1.544.765.765,0,0,1,.389.068,9.625,9.625,0,0,0,7.628.352A.862.862,0,0,1,5154.708,1932.639Z" transform="translate(0 -218.084)" fill="#f38c0f"/>
    <path id="Path_303" data-name="Path 303" d="M5243.854,1712.943a9.056,9.056,0,1,1,9.093-8.971A9.058,9.058,0,0,1,5243.854,1712.943Z" transform="translate(-92.743 0)" fill="#f38c0f"/>
    <path id="Path_304" data-name="Path 304" d="M5400.627,1916.545a8.082,8.082,0,1,1,8.1-8.046A8.054,8.054,0,0,1,5400.627,1916.545Zm-1.155-5.709v.122c0,.809.318,1.139,1.114,1.165s1.181-.283,1.181-1.078a2.446,2.446,0,0,1,.918-1.9,13.9,13.9,0,0,0,1.382-1.487,2.958,2.958,0,0,0,.649-2.206,3.716,3.716,0,0,0-3.414-3.362,3.967,3.967,0,0,0-4.561,2.944,3.126,3.126,0,0,0-.036,1.124,1.174,1.174,0,0,0,1.088.941,1.157,1.157,0,0,0,1.1-.819,3.458,3.458,0,0,1,.112-.431,5.071,5.071,0,0,1,.721-1.237,1.636,1.636,0,0,1,2.215.09,1.431,1.431,0,0,1-.147,2.065c-.334.336-.68.662-1.028.984A3.826,3.826,0,0,0,5399.473,1910.836Zm2.446,3.082a1.191,1.191,0,1,0-2.382.018,1.191,1.191,0,0,0,2.382-.018Z" transform="translate(-237.638 -188.82)" fill="#f38c0f"/>
    <path id="Path_305" data-name="Path 305" d="M5486.34,2107.012a26.917,26.917,0,0,0,2.792-.367,27.364,27.364,0,0,0,2.683-.911v.4c0,1.044.007,2.088-.008,3.132a.621.621,0,0,1-.186.438,19.6,19.6,0,0,1-5.281,2.341Z" transform="translate(-323.787 -377.46)" fill="#f38c0f"/>
  </g>
</svg>
